mtllib 2A2OSZE2LZZCPXQ3SQ0M5DWZ7.mtl
v 0.459522 -0.935624 -1.250000
v 0.459522 0.935624 -1.250000
v 0.477761 0.935624 1.243144
v 0.477761 -0.935624 1.243143
v 0.477761 -0.935624 1.243143
v 0.477761 0.935624 1.243144
v -0.459523 0.935624 1.250000
v -0.459523 -0.935624 1.250000
v -0.459523 -0.935624 1.250000
v -0.459523 0.935624 1.250000
v -0.477761 0.935624 -1.243143
v -0.477761 -0.935624 -1.243143
v 0.459522 0.935624 -1.250000
v 0.459522 -0.935624 -1.250000
v -0.477761 -0.935624 -1.243143
v -0.477761 0.935624 -1.243143
# num_vertices: 16

vt 0.481168 0.000000
vt 0.481168 0.470588
vt 0.165467 0.470588
vt 0.165467 0.000000
vt 0.834533 0.529412
vt 0.834533 1.000000
vt 0.598815 1.000000
vt 0.598815 0.529412
vt 0.481168 0.529412
vt 0.481168 1.000000
vt 0.165467 1.000000
vt 0.165467 0.529412
vt 0.598815 0.470588
vt 0.598815 0.000000
vt 0.834533 0.000000
vt 0.834533 0.470588
# num_vertices: 16


g Object_paint.jpg

usemtl mat_0-paint.jpg

f 2/2 3/3 4/4
f 1/1 2/2 4/4
f 6/6 7/7 8/8
f 5/5 6/6 8/8
f 10/10 11/11 12/12
f 9/9 10/10 12/12
f 14/14 15/15 16/16
f 13/13 14/14 16/16

g Object_default-grey.jpg

usemtl mat_1-default-grey.jpg

# num_faces: 8
