mtllib model.mtl
o object_0
g object_0
usemtl object_0
v 5367.28662109375 0 -1436.1649169921875 
v 2.713520050048828 0 2.713520050048828 
v 5557.3271484375 0 2.713520050048828 
v 5367.28662109375 0 1436.1622314453125 
v 4813.4541015625 0 2777.3056640625 
v 3928.408203125 0 3928.408203125 
v 2777.3056640625 0 4813.4541015625 
v 1436.1622314453125 0 5367.28662109375 
v 2.713520050048828 0 5557.3271484375 
v -1436.1649169921875 0 5367.28662109375 
v -2777.308349609375 0 4813.4541015625 
v -3928.410888671875 0 3928.408203125 
v -4813.45703125 0 2777.3056640625 
v -5367.28955078125 0 1436.1622314453125 
v -5557.330078125 0 2.713520050048828 
v -5367.28955078125 0 -1436.1649169921875 
v -4813.45703125 0 -2777.308349609375 
v -3928.410888671875 0 -3928.410888671875 
v -2777.308349609375 0 -4813.45703125 
v -1436.1649169921875 0 -5367.28955078125 
v 2.713520050048828 0 -5557.330078125 
v 1436.1622314453125 0 -5367.28955078125 
v 2777.3056640625 0 -4813.45703125 
v 3928.408203125 0 -3928.410888671875 
v 4813.4541015625 0 -2777.308349609375 
v 5367.28662109375 1438.881103515625 2.713520050048828 
v 5182.67578125 1438.881103515625 -1387.29736328125 
v 5557.3271484375 0 2.713520050048828 
v 5367.28662109375 0 -1436.1649169921875 
v 5182.67578125 1438.881103515625 -1387.29736328125 
v 4650.5625 1438.881103515625 -2685.0029296875 
v 5367.28662109375 0 -1436.1649169921875 
v 4813.4541015625 0 -2777.308349609375 
v 4650.5625 1438.881103515625 -2685.0029296875 
v 3798.0947265625 1438.881103515625 -3798.097412109375 
v 4813.4541015625 0 -2777.308349609375 
v 3928.408203125 0 -3928.410888671875 
v 3798.0947265625 1438.881103515625 -3798.097412109375 
v 2685.000244140625 1438.881103515625 -4650.56494140625 
v 3928.408203125 0 -3928.410888671875 
v 2777.3056640625 0 -4813.45703125 
v 2685.000244140625 1438.881103515625 -4650.56494140625 
v 1387.294677734375 1438.881103515625 -5182.6787109375 
v 2777.3056640625 0 -4813.45703125 
v 1436.1622314453125 0 -5367.28955078125 
v 1387.294677734375 1438.881103515625 -5182.6787109375 
v 2.713520050048828 1438.881103515625 -5367.28955078125 
v 1436.1622314453125 0 -5367.28955078125 
v 2.713520050048828 0 -5557.330078125 
v 2.713520050048828 1438.881103515625 -5367.28955078125 
v -1387.29736328125 1438.881103515625 -5182.6787109375 
v 2.713520050048828 0 -5557.330078125 
v -1436.1649169921875 0 -5367.28955078125 
v -1387.29736328125 1438.881103515625 -5182.6787109375 
v -2685.0029296875 1438.881103515625 -4650.56494140625 
v -1436.1649169921875 0 -5367.28955078125 
v -2777.308349609375 0 -4813.45703125 
v -2685.0029296875 1438.881103515625 -4650.56494140625 
v -3798.097412109375 1438.881103515625 -3798.097412109375 
v -2777.308349609375 0 -4813.45703125 
v -3928.410888671875 0 -3928.410888671875 
v -3798.097412109375 1438.881103515625 -3798.097412109375 
v -4650.56494140625 1438.881103515625 -2685.0029296875 
v -3928.410888671875 0 -3928.410888671875 
v -4813.45703125 0 -2777.308349609375 
v -4650.56494140625 1438.881103515625 -2685.0029296875 
v -5182.6787109375 1438.881103515625 -1387.29736328125 
v -4813.45703125 0 -2777.308349609375 
v -5367.28955078125 0 -1436.1649169921875 
v -5182.6787109375 1438.881103515625 -1387.29736328125 
v -5367.28955078125 1438.881103515625 2.713520050048828 
v -5367.28955078125 0 -1436.1649169921875 
v -5557.330078125 0 2.713520050048828 
v -5367.28955078125 1438.881103515625 2.713520050048828 
v -5182.6787109375 1438.881103515625 1387.294677734375 
v -5557.330078125 0 2.713520050048828 
v -5367.28955078125 0 1436.1622314453125 
v -5182.6787109375 1438.881103515625 1387.294677734375 
v -4650.56494140625 1438.881103515625 2685.000244140625 
v -5367.28955078125 0 1436.1622314453125 
v -4813.45703125 0 2777.3056640625 
v -4650.56494140625 1438.881103515625 2685.000244140625 
v -3798.097412109375 1438.881103515625 3798.0947265625 
v -4813.45703125 0 2777.3056640625 
v -3928.410888671875 0 3928.408203125 
v -3798.097412109375 1438.881103515625 3798.0947265625 
v -2685.0029296875 1438.881103515625 4650.5625 
v -3928.410888671875 0 3928.408203125 
v -2777.308349609375 0 4813.4541015625 
v -2685.0029296875 1438.881103515625 4650.5625 
v -1387.29736328125 1438.881103515625 5182.67578125 
v -2777.308349609375 0 4813.4541015625 
v -1436.1649169921875 0 5367.28662109375 
v -1387.29736328125 1438.881103515625 5182.67578125 
v 2.713520050048828 1438.881103515625 5367.28662109375 
v -1436.1649169921875 0 5367.28662109375 
v 2.713520050048828 0 5557.3271484375 
v 2.713520050048828 1438.881103515625 5367.28662109375 
v 1387.294677734375 1438.881103515625 5182.67578125 
v 2.713520050048828 0 5557.3271484375 
v 1436.1622314453125 0 5367.28662109375 
v 1387.294677734375 1438.881103515625 5182.67578125 
v 2685.000244140625 1438.881103515625 4650.5625 
v 1436.1622314453125 0 5367.28662109375 
v 2777.3056640625 0 4813.4541015625 
v 2685.000244140625 1438.881103515625 4650.5625 
v 3798.0947265625 1438.881103515625 3798.0947265625 
v 2777.3056640625 0 4813.4541015625 
v 3928.408203125 0 3928.408203125 
v 3798.0947265625 1438.881103515625 3798.0947265625 
v 4650.5625 1438.881103515625 2685.000244140625 
v 3928.408203125 0 3928.408203125 
v 4813.4541015625 0 2777.3056640625 
v 4650.5625 1438.881103515625 2685.000244140625 
v 5182.67578125 1438.881103515625 1387.294677734375 
v 4813.4541015625 0 2777.3056640625 
v 5367.28662109375 0 1436.1622314453125 
v 5182.67578125 1438.881103515625 1387.294677734375 
v 5367.28662109375 1438.881103515625 2.713520050048828 
v 5367.28662109375 0 1436.1622314453125 
v 5557.3271484375 0 2.713520050048828 
v 4813.4541015625 2780.02685546875 2.713520050048828 
v 4650.5625 2780.02685546875 -1246.1243896484375 
v 5367.28662109375 1438.881103515625 2.713520050048828 
v 5182.67578125 1438.881103515625 -1387.29736328125 
v 4650.5625 2780.02685546875 -1246.1243896484375 
v 4167.31640625 2780.02685546875 -2408.086669921875 
v 5182.67578125 1438.881103515625 -1387.29736328125 
v 4650.5625 1438.881103515625 -2685.0029296875 
v 4167.31640625 2780.02685546875 -2408.086669921875 
v 3401.724609375 2780.02685546875 -3401.727294921875 
v 4650.5625 1438.881103515625 -2685.0029296875 
v 3798.0947265625 1438.881103515625 -3798.097412109375 
v 3401.724609375 2780.02685546875 -3401.727294921875 
v 2408.083984375 2780.02685546875 -4167.3193359375 
v 3798.0947265625 1438.881103515625 -3798.097412109375 
v 2685.000244140625 1438.881103515625 -4650.56494140625 
v 2408.083984375 2780.02685546875 -4167.3193359375 
v 1246.1217041015625 2780.02685546875 -4650.56494140625 
v 2685.000244140625 1438.881103515625 -4650.56494140625 
v 1387.294677734375 1438.881103515625 -5182.6787109375 
v 1246.1217041015625 2780.02685546875 -4650.56494140625 
v 2.713520050048828 2780.02685546875 -4813.45703125 
v 1387.294677734375 1438.881103515625 -5182.6787109375 
v 2.713520050048828 1438.881103515625 -5367.28955078125 
v 2.713520050048828 2780.02685546875 -4813.45703125 
v -1246.1243896484375 2780.02685546875 -4650.56494140625 
v 2.713520050048828 1438.881103515625 -5367.28955078125 
v -1387.29736328125 1438.881103515625 -5182.6787109375 
v -1246.1243896484375 2780.02685546875 -4650.56494140625 
v -2408.086669921875 2780.02685546875 -4167.3193359375 
v -1387.29736328125 1438.881103515625 -5182.6787109375 
v -2685.0029296875 1438.881103515625 -4650.56494140625 
v -2408.086669921875 2780.02685546875 -4167.3193359375 
v -3401.727294921875 2780.02685546875 -3401.727294921875 
v -2685.0029296875 1438.881103515625 -4650.56494140625 
v -3798.097412109375 1438.881103515625 -3798.097412109375 
v -3401.727294921875 2780.02685546875 -3401.727294921875 
v -4167.3193359375 2780.02685546875 -2408.086669921875 
v -3798.097412109375 1438.881103515625 -3798.097412109375 
v -4650.56494140625 1438.881103515625 -2685.0029296875 
v -4167.3193359375 2780.02685546875 -2408.086669921875 
v -4650.56494140625 2780.02685546875 -1246.1243896484375 
v -4650.56494140625 1438.881103515625 -2685.0029296875 
v -5182.6787109375 1438.881103515625 -1387.29736328125 
v -4650.56494140625 2780.02685546875 -1246.1243896484375 
v -4813.45703125 2780.02685546875 2.713520050048828 
v -5182.6787109375 1438.881103515625 -1387.29736328125 
v -5367.28955078125 1438.881103515625 2.713520050048828 
v -4813.45703125 2780.02685546875 2.713520050048828 
v -4650.56494140625 2780.02685546875 1246.1217041015625 
v -5367.28955078125 1438.881103515625 2.713520050048828 
v -5182.6787109375 1438.881103515625 1387.294677734375 
v -4650.56494140625 2780.02685546875 1246.1217041015625 
v -4167.3193359375 2780.02685546875 2408.083984375 
v -5182.6787109375 1438.881103515625 1387.294677734375 
v -4650.56494140625 1438.881103515625 2685.000244140625 
v -4167.3193359375 2780.02685546875 2408.083984375 
v -3401.727294921875 2780.02685546875 3401.724609375 
v -4650.56494140625 1438.881103515625 2685.000244140625 
v -3798.097412109375 1438.881103515625 3798.0947265625 
v -3401.727294921875 2780.02685546875 3401.724609375 
v -2408.086669921875 2780.02685546875 4167.31640625 
v -3798.097412109375 1438.881103515625 3798.0947265625 
v -2685.0029296875 1438.881103515625 4650.5625 
v -2408.086669921875 2780.02685546875 4167.31640625 
v -1246.1243896484375 2780.02685546875 4650.5625 
v -2685.0029296875 1438.881103515625 4650.5625 
v -1387.29736328125 1438.881103515625 5182.67578125 
v -1246.1243896484375 2780.02685546875 4650.5625 
v 2.713520050048828 2780.02685546875 4813.4541015625 
v -1387.29736328125 1438.881103515625 5182.67578125 
v 2.713520050048828 1438.881103515625 5367.28662109375 
v 2.713520050048828 2780.02685546875 4813.4541015625 
v 1246.1217041015625 2780.02685546875 4650.5625 
v 2.713520050048828 1438.881103515625 5367.28662109375 
v 1387.294677734375 1438.881103515625 5182.67578125 
v 1246.1217041015625 2780.02685546875 4650.5625 
v 2408.083984375 2780.02685546875 4167.31640625 
v 1387.294677734375 1438.881103515625 5182.67578125 
v 2685.000244140625 1438.881103515625 4650.5625 
v 2408.083984375 2780.02685546875 4167.31640625 
v 3401.724609375 2780.02685546875 3401.724609375 
v 2685.000244140625 1438.881103515625 4650.5625 
v 3798.0947265625 1438.881103515625 3798.0947265625 
v 3401.724609375 2780.02685546875 3401.724609375 
v 4167.31640625 2780.02685546875 2408.083984375 
v 3798.0947265625 1438.881103515625 3798.0947265625 
v 4650.5625 1438.881103515625 2685.000244140625 
v 4167.31640625 2780.02685546875 2408.083984375 
v 4650.5625 2780.02685546875 1246.1217041015625 
v 4650.5625 1438.881103515625 2685.000244140625 
v 5182.67578125 1438.881103515625 1387.294677734375 
v 4650.5625 2780.02685546875 1246.1217041015625 
v 4813.4541015625 2780.02685546875 2.713520050048828 
v 5182.67578125 1438.881103515625 1387.294677734375 
v 5367.28662109375 1438.881103515625 2.713520050048828 
v 4189.03515625 3675.93408203125 2.713520050048828 
v 4047.8623046875 3675.93408203125 -1083.232421875 
v 4813.4541015625 2780.02685546875 2.713520050048828 
v 4650.5625 2780.02685546875 -1246.1243896484375 
v 3629.773193359375 3675.93408203125 -2093.162353515625 
v 4167.31640625 2780.02685546875 -2408.086669921875 
v 3629.773193359375 3675.93408203125 -2093.162353515625 
v 4167.31640625 2780.02685546875 -2408.086669921875 
v 2961.916259765625 3675.93408203125 -2961.9189453125 
v 3401.724609375 2780.02685546875 -3401.727294921875 
v 2093.15966796875 3675.93408203125 -3629.77587890625 
v 2408.083984375 2780.02685546875 -4167.3193359375 
v 2093.15966796875 3675.93408203125 -3629.77587890625 
v 2408.083984375 2780.02685546875 -4167.3193359375 
v 1083.229736328125 3675.93408203125 -4047.864990234375 
v 1246.1217041015625 2780.02685546875 -4650.56494140625 
v 2.713520050048828 3675.93408203125 -4189.0380859375 
v 2.713520050048828 2780.02685546875 -4813.45703125 
v 2.713520050048828 3675.93408203125 -4189.0380859375 
v 2.713520050048828 2780.02685546875 -4813.45703125 
v -1083.232421875 3675.93408203125 -4047.864990234375 
v -1246.1243896484375 2780.02685546875 -4650.56494140625 
v -2093.162353515625 3675.93408203125 -3629.77587890625 
v -2408.086669921875 2780.02685546875 -4167.3193359375 
v -2093.162353515625 3675.93408203125 -3629.77587890625 
v -2408.086669921875 2780.02685546875 -4167.3193359375 
v -2961.9189453125 3675.93408203125 -2961.9189453125 
v -3401.727294921875 2780.02685546875 -3401.727294921875 
v -3629.77587890625 3675.93408203125 -2093.162353515625 
v -4167.3193359375 2780.02685546875 -2408.086669921875 
v -3629.77587890625 3675.93408203125 -2093.162353515625 
v -4167.3193359375 2780.02685546875 -2408.086669921875 
v -4047.864990234375 3675.93408203125 -1083.232421875 
v -4650.56494140625 2780.02685546875 -1246.1243896484375 
v -4189.0380859375 3675.93408203125 2.713520050048828 
v -4813.45703125 2780.02685546875 2.713520050048828 
v -4189.0380859375 3675.93408203125 2.713520050048828 
v -4813.45703125 2780.02685546875 2.713520050048828 
v -4047.864990234375 3675.93408203125 1083.229736328125 
v -4650.56494140625 2780.02685546875 1246.1217041015625 
v -3629.77587890625 3675.93408203125 2093.15966796875 
v -4167.3193359375 2780.02685546875 2408.083984375 
v -3629.77587890625 3675.93408203125 2093.15966796875 
v -4167.3193359375 2780.02685546875 2408.083984375 
v -2961.9189453125 3675.93408203125 2961.916259765625 
v -3401.727294921875 2780.02685546875 3401.724609375 
v -2093.162353515625 3675.93408203125 3629.773193359375 
v -2408.086669921875 2780.02685546875 4167.31640625 
v -2093.162353515625 3675.93408203125 3629.773193359375 
v -2408.086669921875 2780.02685546875 4167.31640625 
v -1083.232421875 3675.93408203125 4047.8623046875 
v -1246.1243896484375 2780.02685546875 4650.5625 
v 2.713520050048828 3675.93408203125 4189.03515625 
v 2.713520050048828 2780.02685546875 4813.4541015625 
v 2.713520050048828 3675.93408203125 4189.03515625 
v 2.713520050048828 2780.02685546875 4813.4541015625 
v 1083.229736328125 3675.93408203125 4047.8623046875 
v 1246.1217041015625 2780.02685546875 4650.5625 
v 2093.15966796875 3675.93408203125 3629.773193359375 
v 2408.083984375 2780.02685546875 4167.31640625 
v 2093.15966796875 3675.93408203125 3629.773193359375 
v 2408.083984375 2780.02685546875 4167.31640625 
v 2961.916259765625 3675.93408203125 2961.916259765625 
v 3401.724609375 2780.02685546875 3401.724609375 
v 3629.773193359375 3675.93408203125 2093.15966796875 
v 4167.31640625 2780.02685546875 2408.083984375 
v 3629.773193359375 3675.93408203125 2093.15966796875 
v 4167.31640625 2780.02685546875 2408.083984375 
v 4047.8623046875 3675.93408203125 1083.229736328125 
v 4650.5625 2780.02685546875 1246.1217041015625 
v 4189.03515625 3675.93408203125 2.713520050048828 
v 4813.4541015625 2780.02685546875 2.713520050048828 
v 2880.470458984375 4767.3115234375 2.713520050048828 
v 3537.4677734375 4303.06884765625 2.713520050048828 
v 2782.7353515625 4767.3115234375 -746.5892333984375 
v 3418.013671875 4303.06884765625 -914.9108276367188 
v 2494.95947265625 4767.3115234375 -1441.5946044921875 
v 3065.081298828125 4303.06884765625 -1767.37841796875 
v 2038.8623046875 4767.3115234375 -2038.864990234375 
v 2500.389404296875 4303.06884765625 -2500.39208984375 
v 2152.88671875 5090.38134765625 -578.267578125 
v 1930.2677001953125 5090.38134765625 -1115.8109130859375 
v 1577.335205078125 5090.38134765625 -1577.337890625 
v 1077.800048828125 5329.2900390625 -1077.802734375 
v 1577.335205078125 5090.38134765625 -1577.337890625 
v 762.875732421875 5329.2900390625 -1322.140625 
v 1115.8082275390625 5090.38134765625 -1930.2703857421875 
v 393.6540832519531 5329.2900390625 -1474.173095703125 
v 578.264892578125 5090.38134765625 -2152.889404296875 
v 2.713520050048828 5329.2900390625 -1528.4703369140625 
v 2.713520050048828 5090.38134765625 -2228.905517578125 
v 746.5865478515625 4767.3115234375 -2782.738037109375 
v 1441.5919189453125 4767.3115234375 -2494.962158203125 
v 1767.375732421875 4303.06884765625 -3065.083984375 
v 2500.389404296875 4303.06884765625 -2500.39208984375 
v 2038.8623046875 4767.3115234375 -2038.864990234375 
v 914.9081420898438 4303.06884765625 -3418.016357421875 
v 2.713520050048828 4767.3115234375 -2880.47314453125 
v 2.713520050048828 4303.06884765625 -3537.470458984375 
v 2.713520050048828 5329.2900390625 -1528.4703369140625 
v 2.713520050048828 5090.38134765625 -2228.905517578125 
v -393.6567687988281 5329.2900390625 -1474.173095703125 
v -578.267578125 5090.38134765625 -2152.889404296875 
v -762.87841796875 5329.2900390625 -1322.140625 
v -1115.8109130859375 5090.38134765625 -1930.2703857421875 
v -1077.802734375 5329.2900390625 -1077.802734375 
v -1577.337890625 5090.38134765625 -1577.337890625 
v -1441.5946044921875 4767.3115234375 -2494.962158203125 
v -746.5892333984375 4767.3115234375 -2782.738037109375 
v -914.9108276367188 4303.06884765625 -3418.016357421875 
v 2.713520050048828 4303.06884765625 -3537.470458984375 
v 2.713520050048828 4767.3115234375 -2880.47314453125 
v -1767.37841796875 4303.06884765625 -3065.083984375 
v -2038.864990234375 4767.3115234375 -2038.864990234375 
v -2500.39208984375 4303.06884765625 -2500.39208984375 
v -1577.337890625 5090.38134765625 -1577.337890625 
v -2038.864990234375 4767.3115234375 -2038.864990234375 
v -1930.2703857421875 5090.38134765625 -1115.8109130859375 
v -2494.962158203125 4767.3115234375 -1441.5946044921875 
v -2152.889404296875 5090.38134765625 -578.267578125 
v -2782.738037109375 4767.3115234375 -746.5892333984375 
v -3065.083984375 4303.06884765625 -1767.37841796875 
v -3418.016357421875 4303.06884765625 -914.9108276367188 
v -2880.47314453125 4767.3115234375 2.713520050048828 
v -3537.470458984375 4303.06884765625 2.713520050048828 
v -2500.39208984375 4303.06884765625 -2500.39208984375 
v -3418.016357421875 4303.06884765625 914.9081420898438 
v -2782.738037109375 4767.3115234375 746.5865478515625 
v -3537.470458984375 4303.06884765625 2.713520050048828 
v -2880.47314453125 4767.3115234375 2.713520050048828 
v -2152.889404296875 5090.38134765625 578.264892578125 
v -2228.905517578125 5090.38134765625 2.713520050048828 
v -1474.173095703125 5329.2900390625 393.6540832519531 
v -1528.4703369140625 5329.2900390625 2.713520050048828 
v -768.3081665039062 5481.32275390625 203.613525390625 
v -795.456787109375 5481.32275390625 2.713520050048828 
v -1474.173095703125 5329.2900390625 -393.6567687988281 
v -768.3081665039062 5481.32275390625 -203.61622619628906 
v -1322.140625 5329.2900390625 -762.87841796875 
v -1930.2703857421875 5090.38134765625 -1115.8109130859375 
v -1577.337890625 5090.38134765625 -1577.337890625 
v -1077.802734375 5329.2900390625 -1077.802734375 
v -686.8621826171875 5481.32275390625 -399.08648681640625 
v -561.9783935546875 5481.32275390625 -561.9783935546875 
v -762.87841796875 5329.2900390625 -1322.140625 
v -399.08648681640625 5481.32275390625 -686.8621826171875 
v -393.6567687988281 5329.2900390625 -1474.173095703125 
v -203.61622619628906 5481.32275390625 -768.3081665039062 
v 2.713520050048828 5329.2900390625 -1528.4703369140625 
v 2.713520050048828 5481.32275390625 -795.456787109375 
v -2782.738037109375 4767.3115234375 -746.5892333984375 
v -2152.889404296875 5090.38134765625 -578.267578125 
v -768.3081665039062 5481.32275390625 203.613525390625 
v -1474.173095703125 5329.2900390625 393.6540832519531 
v -686.8621826171875 5481.32275390625 399.08380126953125 
v -1322.140625 5329.2900390625 762.875732421875 
v -561.9783935546875 5481.32275390625 561.9757080078125 
v -1077.802734375 5329.2900390625 1077.800048828125 
v -1930.2703857421875 5090.38134765625 1115.8082275390625 
v -2152.889404296875 5090.38134765625 578.264892578125 
v -2782.738037109375 4767.3115234375 746.5865478515625 
v -2494.962158203125 4767.3115234375 1441.5919189453125 
v -3418.016357421875 4303.06884765625 914.9081420898438 
v -3065.083984375 4303.06884765625 1767.375732421875 
v -399.08648681640625 5481.32275390625 686.8594970703125 
v -762.87841796875 5329.2900390625 1322.137939453125 
v -203.61622619628906 5481.32275390625 768.305419921875 
v -393.6567687988281 5329.2900390625 1474.17041015625 
v 2.713520050048828 5481.32275390625 795.4541015625 
v 2.713520050048828 5329.2900390625 1528.4676513671875 
v -578.267578125 5090.38134765625 2152.88671875 
v 2.713520050048828 5090.38134765625 2228.90283203125 
v -1577.337890625 5090.38134765625 1577.335205078125 
v -2038.864990234375 4767.3115234375 2038.8623046875 
v -2500.39208984375 4303.06884765625 2500.389404296875 
v -1441.5946044921875 4767.3115234375 2494.95947265625 
v -1115.8109130859375 5090.38134765625 1930.2677001953125 
v 2.713520050048828 4303.06884765625 3537.4677734375 
v -914.9108276367188 4303.06884765625 3418.013671875 
v 2.713520050048828 4767.3115234375 2880.470458984375 
v -746.5892333984375 4767.3115234375 2782.7353515625 
v -1767.37841796875 4303.06884765625 3065.081298828125 
v 2.713520050048828 5481.32275390625 795.4541015625 
v 203.613525390625 5481.32275390625 768.305419921875 
v 2.713520050048828 5329.2900390625 1528.4676513671875 
v 393.6540832519531 5329.2900390625 1474.17041015625 
v 2.713520050048828 5090.38134765625 2228.90283203125 
v 578.264892578125 5090.38134765625 2152.88671875 
v 2.713520050048828 4767.3115234375 2880.470458984375 
v 746.5865478515625 4767.3115234375 2782.7353515625 
v 2.713520050048828 4303.06884765625 3537.4677734375 
v 914.9081420898438 4303.06884765625 3418.013671875 
v 399.08380126953125 5481.32275390625 686.8594970703125 
v 762.875732421875 5329.2900390625 1322.137939453125 
v 1115.8082275390625 5090.38134765625 1930.2677001953125 
v 561.9757080078125 5481.32275390625 561.9757080078125 
v 1077.800048828125 5329.2900390625 1077.800048828125 
v 686.8594970703125 5481.32275390625 399.08380126953125 
v 1322.137939453125 5329.2900390625 762.875732421875 
v 1577.335205078125 5090.38134765625 1577.335205078125 
v 1930.2677001953125 5090.38134765625 1115.8082275390625 
v 1441.5919189453125 4767.3115234375 2494.95947265625 
v 2038.8623046875 4767.3115234375 2038.8623046875 
v 1767.375732421875 4303.06884765625 3065.081298828125 
v 2500.389404296875 4303.06884765625 2500.389404296875 
v 2494.95947265625 4767.3115234375 1441.5919189453125 
v 3065.081298828125 4303.06884765625 1767.375732421875 
v 3537.4677734375 4303.06884765625 2.713520050048828 
v 3418.013671875 4303.06884765625 914.9081420898438 
v 2880.470458984375 4767.3115234375 2.713520050048828 
v 2782.7353515625 4767.3115234375 746.5865478515625 
v 2228.90283203125 5090.38134765625 2.713520050048828 
v 2152.88671875 5090.38134765625 -578.267578125 
v 1474.17041015625 5329.2900390625 -393.6567687988281 
v 1322.137939453125 5329.2900390625 -762.87841796875 
v 1930.2677001953125 5090.38134765625 -1115.8109130859375 
v 1077.800048828125 5329.2900390625 -1077.802734375 
v 1577.335205078125 5090.38134765625 -1577.337890625 
v 3065.081298828125 4303.06884765625 1767.375732421875 
v 2494.95947265625 4767.3115234375 1441.5919189453125 
v 2782.7353515625 4767.3115234375 -746.5892333984375 
v 561.9757080078125 5481.32275390625 -561.9783935546875 
v 686.8594970703125 5481.32275390625 -399.08648681640625 
v 768.305419921875 5481.32275390625 -203.61622619628906 
v 1528.4676513671875 5329.2900390625 2.713520050048828 
v 795.4541015625 5481.32275390625 2.713520050048828 
v 2152.88671875 5090.38134765625 578.264892578125 
v 1930.2677001953125 5090.38134765625 1115.8082275390625 
v 1474.17041015625 5329.2900390625 393.6540832519531 
v 1322.137939453125 5329.2900390625 762.875732421875 
v 768.305419921875 5481.32275390625 203.613525390625 
v 686.8594970703125 5481.32275390625 399.08380126953125 
v 399.08380126953125 5481.32275390625 -686.8621826171875 
v 762.875732421875 5329.2900390625 -1322.140625 
v 203.613525390625 5481.32275390625 -768.3081665039062 
v 393.6540832519531 5329.2900390625 -1474.173095703125 
v 2.713520050048828 5481.32275390625 -795.456787109375 
v 2.713520050048828 5329.2900390625 -1528.4703369140625 
v 768.305419921875 5481.32275390625 -203.61622619628906 
v 2.713520050048828 5557.3388671875 2.713520050048828 
v 795.4541015625 5481.32275390625 2.713520050048828 
v 768.305419921875 5481.32275390625 203.613525390625 
v 686.8594970703125 5481.32275390625 399.08380126953125 
v 561.9757080078125 5481.32275390625 561.9757080078125 
v 399.08380126953125 5481.32275390625 686.8594970703125 
v 203.613525390625 5481.32275390625 768.305419921875 
v 2.713520050048828 5481.32275390625 795.4541015625 
v -203.61622619628906 5481.32275390625 768.305419921875 
v -399.08648681640625 5481.32275390625 686.8594970703125 
v -561.9783935546875 5481.32275390625 561.9757080078125 
v -686.8621826171875 5481.32275390625 399.08380126953125 
v -768.3081665039062 5481.32275390625 203.613525390625 
v -795.456787109375 5481.32275390625 2.713520050048828 
v -768.3081665039062 5481.32275390625 -203.61622619628906 
v -686.8621826171875 5481.32275390625 -399.08648681640625 
v -561.9783935546875 5481.32275390625 -561.9783935546875 
v -399.08648681640625 5481.32275390625 -686.8621826171875 
v -203.61622619628906 5481.32275390625 -768.3081665039062 
v 2.713520050048828 5481.32275390625 -795.456787109375 
v 203.613525390625 5481.32275390625 -768.3081665039062 
v 399.08380126953125 5481.32275390625 -686.8621826171875 
v 561.9757080078125 5481.32275390625 -561.9783935546875 
v 686.8594970703125 5481.32275390625 -399.08648681640625 
v 3418.013671875 4303.06884765625 -914.9108276367188 
v 4047.8623046875 3675.93408203125 -1083.232421875 
v 3065.081298828125 4303.06884765625 -1767.37841796875 
v 3629.773193359375 3675.93408203125 -2093.162353515625 
v 2500.389404296875 4303.06884765625 -2500.39208984375 
v 2961.916259765625 3675.93408203125 -2961.9189453125 
v 4047.8623046875 3675.93408203125 -1083.232421875 
v 3418.013671875 4303.06884765625 -914.9108276367188 
v 4189.03515625 3675.93408203125 2.713520050048828 
v 3537.4677734375 4303.06884765625 2.713520050048828 
v 4047.8623046875 3675.93408203125 1083.229736328125 
v 3418.013671875 4303.06884765625 914.9081420898438 
v 4047.8623046875 3675.93408203125 1083.229736328125 
v 3418.013671875 4303.06884765625 914.9081420898438 
v 3629.773193359375 3675.93408203125 2093.15966796875 
v 3065.081298828125 4303.06884765625 1767.375732421875 
v 2961.916259765625 3675.93408203125 2961.916259765625 
v 2500.389404296875 4303.06884765625 2500.389404296875 
v 2961.916259765625 3675.93408203125 2961.916259765625 
v 2500.389404296875 4303.06884765625 2500.389404296875 
v 2093.15966796875 3675.93408203125 3629.773193359375 
v 1767.375732421875 4303.06884765625 3065.081298828125 
v 1083.229736328125 3675.93408203125 4047.8623046875 
v 914.9081420898438 4303.06884765625 3418.013671875 
v 1083.229736328125 3675.93408203125 4047.8623046875 
v 914.9081420898438 4303.06884765625 3418.013671875 
v 2.713520050048828 3675.93408203125 4189.03515625 
v 2.713520050048828 4303.06884765625 3537.4677734375 
v -1083.232421875 3675.93408203125 4047.8623046875 
v -914.9108276367188 4303.06884765625 3418.013671875 
v -1083.232421875 3675.93408203125 4047.8623046875 
v -914.9108276367188 4303.06884765625 3418.013671875 
v -2093.162353515625 3675.93408203125 3629.773193359375 
v -1767.37841796875 4303.06884765625 3065.081298828125 
v -2961.9189453125 3675.93408203125 2961.916259765625 
v -2500.39208984375 4303.06884765625 2500.389404296875 
v -2961.9189453125 3675.93408203125 2961.916259765625 
v -2500.39208984375 4303.06884765625 2500.389404296875 
v -3629.77587890625 3675.93408203125 2093.15966796875 
v -3065.083984375 4303.06884765625 1767.375732421875 
v -4047.864990234375 3675.93408203125 1083.229736328125 
v -3418.016357421875 4303.06884765625 914.9081420898438 
v -4047.864990234375 3675.93408203125 1083.229736328125 
v -3418.016357421875 4303.06884765625 914.9081420898438 
v -4189.0380859375 3675.93408203125 2.713520050048828 
v -3537.470458984375 4303.06884765625 2.713520050048828 
v -4047.864990234375 3675.93408203125 -1083.232421875 
v -3418.016357421875 4303.06884765625 -914.9108276367188 
v -4047.864990234375 3675.93408203125 -1083.232421875 
v -3418.016357421875 4303.06884765625 -914.9108276367188 
v -3629.77587890625 3675.93408203125 -2093.162353515625 
v -3065.083984375 4303.06884765625 -1767.37841796875 
v -2961.9189453125 3675.93408203125 -2961.9189453125 
v -2500.39208984375 4303.06884765625 -2500.39208984375 
v -2961.9189453125 3675.93408203125 -2961.9189453125 
v -2500.39208984375 4303.06884765625 -2500.39208984375 
v -2093.162353515625 3675.93408203125 -3629.77587890625 
v -1767.37841796875 4303.06884765625 -3065.083984375 
v -1083.232421875 3675.93408203125 -4047.864990234375 
v -914.9108276367188 4303.06884765625 -3418.016357421875 
v 2.713520050048828 4303.06884765625 -3537.470458984375 
v 2.713520050048828 3675.93408203125 -4189.0380859375 
v -914.9108276367188 4303.06884765625 -3418.016357421875 
v -1083.232421875 3675.93408203125 -4047.864990234375 
v 914.9081420898438 4303.06884765625 -3418.016357421875 
v 1083.229736328125 3675.93408203125 -4047.864990234375 
v 2.713520050048828 4303.06884765625 -3537.470458984375 
v 2.713520050048828 3675.93408203125 -4189.0380859375 
v 1083.229736328125 3675.93408203125 -4047.864990234375 
v 914.9081420898438 4303.06884765625 -3418.016357421875 
v 2093.15966796875 3675.93408203125 -3629.77587890625 
v 1767.375732421875 4303.06884765625 -3065.083984375 
v 2961.916259765625 3675.93408203125 -2961.9189453125 
v 2500.389404296875 4303.06884765625 -2500.39208984375 
vn 0.000000 0.999998 0.002185
vn 0.000000 0.999998 0.002185
vn 0.000000 0.999998 0.002185
vn 0.000000 0.999998 0.002185
vn 0.000000 0.999998 0.002185
vn 0.000000 0.999998 0.002185
vn 0.000000 0.999998 0.002185
vn 0.000000 0.999998 0.002185
vn 0.000000 0.999998 0.002185
vn 0.000000 0.999998 0.002185
vn 0.000000 0.999998 0.002185
vn 0.000000 0.999998 0.002185
vn 0.000000 0.999998 0.002185
vn 0.000000 0.999998 0.002185
vn 0.000000 0.999998 0.002185
vn 0.000000 0.999998 0.002185
vn 0.000000 0.999998 0.002185
vn 0.000000 0.999998 0.002185
vn 0.000000 0.999998 0.002185
vn 0.000000 0.999998 0.002185
vn 0.000000 0.999998 0.002185
vn 0.000000 0.999998 0.002185
vn 0.000000 0.999998 0.002185
vn 0.000000 0.999998 0.002185
vn 0.000000 0.999998 0.002185
vn -0.967214 -0.253952 -0.002185
vn -0.934781 -0.253731 0.248605
vn -0.991768 -0.128030 -0.002185
vn -0.957394 -0.131591 0.257060
vn -0.934781 -0.253731 0.248605
vn -0.839102 -0.249242 0.483514
vn -0.957394 -0.131591 0.257060
vn -0.859484 -0.127731 0.494946
vn -0.839102 -0.249242 0.483514
vn -0.684601 -0.250956 0.684356
vn -0.859484 -0.127731 0.494946
vn -0.701867 -0.131202 0.700121
vn -0.684601 -0.250956 0.684356
vn -0.484587 -0.250079 0.838234
vn -0.701867 -0.131202 0.700121
vn -0.495055 -0.130375 0.859025
vn -0.484587 -0.250079 0.838234
vn -0.250855 -0.250855 0.934957
vn -0.495055 -0.130375 0.859025
vn -0.255664 -0.133856 0.957454
vn -0.250855 -0.250855 0.934957
vn 0.003751 -0.250693 0.968060
vn -0.255664 -0.133856 0.957454
vn 0.003732 -0.130653 0.991421
vn 0.003751 -0.250693 0.968060
vn 0.250855 -0.250855 0.934957
vn 0.003732 -0.130653 0.991421
vn 0.257387 -0.130512 0.957454
vn 0.250855 -0.250855 0.934957
vn 0.482849 -0.253419 0.838234
vn 0.257387 -0.130512 0.957454
vn 0.496001 -0.126729 0.859025
vn 0.482849 -0.253419 0.838234
vn 0.684601 -0.250956 0.684356
vn 0.496001 -0.126729 0.859025
vn 0.702550 -0.127494 0.700121
vn 0.684601 -0.250956 0.684356
vn 0.838020 -0.252856 0.483514
vn 0.702550 -0.127494 0.700121
vn 0.859484 -0.127731 0.494946
vn 0.838020 -0.252856 0.483514
vn 0.934781 -0.253731 0.248605
vn 0.859484 -0.127731 0.494946
vn 0.957901 -0.127854 0.257060
vn 0.934781 -0.253731 0.248605
vn 0.967214 -0.253952 0.002185
vn 0.957901 -0.127854 0.257060
vn 0.991768 -0.128030 0.002185
vn 0.967214 -0.253952 0.002185
vn 0.934781 -0.253731 -0.248605
vn 0.991768 -0.128030 0.002185
vn 0.957880 -0.128012 -0.257060
vn 0.934781 -0.253731 -0.248605
vn 0.837919 -0.253193 -0.483514
vn 0.957880 -0.128012 -0.257060
vn 0.859458 -0.127906 -0.494946
vn 0.837919 -0.253193 -0.483514
vn 0.684309 -0.251750 -0.684356
vn 0.859458 -0.127906 -0.494946
vn 0.702511 -0.127706 -0.700121
vn 0.684309 -0.251750 -0.684356
vn 0.482307 -0.254448 -0.838234
vn 0.702511 -0.127706 -0.700121
vn 0.495926 -0.127020 -0.859025
vn 0.482307 -0.254448 -0.838234
vn 0.250186 -0.251522 -0.934957
vn 0.495926 -0.127020 -0.859025
vn 0.257132 -0.131015 -0.957454
vn 0.250186 -0.251522 -0.934957
vn 0.000000 -0.250721 -0.968060
vn 0.257132 -0.131015 -0.957454
vn 0.000000 -0.130707 -0.991421
vn 0.000000 -0.250721 -0.968060
vn -0.252850 -0.248843 -0.934957
vn 0.000000 -0.130707 -0.991421
vn -0.257132 -0.131015 -0.957454
vn -0.252850 -0.248843 -0.934957
vn -0.484060 -0.251097 -0.838234
vn -0.257132 -0.131015 -0.957454
vn -0.495926 -0.127020 -0.859025
vn -0.484060 -0.251097 -0.838234
vn -0.684309 -0.251750 -0.684356
vn -0.495926 -0.127020 -0.859025
vn -0.702511 -0.127706 -0.700121
vn -0.684309 -0.251750 -0.684356
vn -0.837919 -0.253193 -0.483514
vn -0.702511 -0.127706 -0.700121
vn -0.858894 -0.131639 -0.494946
vn -0.837919 -0.253193 -0.483514
vn -0.934781 -0.253731 -0.248605
vn -0.858894 -0.131639 -0.494946
vn -0.957880 -0.128012 -0.257060
vn -0.934781 -0.253731 -0.248605
vn -0.967214 -0.253952 -0.002185
vn -0.957880 -0.128012 -0.257060
vn -0.991768 -0.128030 -0.002185
vn -0.888938 -0.458022 -0.002185
vn -0.858933 -0.456703 0.231639
vn -0.967214 -0.253952 -0.002185
vn -0.934781 -0.253731 0.248605
vn -0.858933 -0.456703 0.231639
vn -0.772468 -0.453243 0.444818
vn -0.934781 -0.253731 0.248605
vn -0.839102 -0.249242 0.483514
vn -0.772468 -0.453243 0.444818
vn -0.628466 -0.458472 0.628358
vn -0.839102 -0.249242 0.483514
vn -0.684601 -0.250956 0.684356
vn -0.628466 -0.458472 0.628358
vn -0.444264 -0.456252 0.771014
vn -0.684601 -0.250956 0.684356
vn -0.484587 -0.250079 0.838234
vn -0.444264 -0.456252 0.771014
vn -0.233922 -0.455365 0.859025
vn -0.484587 -0.250079 0.838234
vn -0.250855 -0.250855 0.934957
vn -0.233922 -0.455365 0.859025
vn -0.001884 -0.454571 0.890709
vn -0.250855 -0.250855 0.934957
vn 0.003751 -0.250693 0.968060
vn -0.001884 -0.454571 0.890709
vn 0.230566 -0.457074 0.859025
vn 0.003751 -0.250693 0.968060
vn 0.250855 -0.250855 0.934957
vn 0.230566 -0.457074 0.859025
vn 0.446956 -0.453616 0.771014
vn 0.250855 -0.250855 0.934957
vn 0.482849 -0.253419 0.838234
vn 0.446956 -0.453616 0.771014
vn 0.628466 -0.458472 0.628358
vn 0.482849 -0.253419 0.838234
vn 0.684601 -0.250956 0.684356
vn 0.628466 -0.458472 0.628358
vn 0.772468 -0.453243 0.444818
vn 0.684601 -0.250956 0.684356
vn 0.838020 -0.252856 0.483514
vn 0.772468 -0.453243 0.444818
vn 0.858933 -0.456703 0.231639
vn 0.838020 -0.252856 0.483514
vn 0.934781 -0.253731 0.248605
vn 0.858933 -0.456703 0.231639
vn 0.888938 -0.458022 0.002185
vn 0.934781 -0.253731 0.248605
vn 0.967214 -0.253952 0.002185
vn 0.888938 -0.458022 0.002185
vn 0.858657 -0.457222 -0.231639
vn 0.967214 -0.253952 0.002185
vn 0.934781 -0.253731 -0.248605
vn 0.858657 -0.457222 -0.231639
vn 0.772146 -0.453794 -0.444818
vn 0.934781 -0.253731 -0.248605
vn 0.837919 -0.253193 -0.483514
vn 0.772146 -0.453794 -0.444818
vn 0.628019 -0.459084 -0.628358
vn 0.837919 -0.253193 -0.483514
vn 0.684309 -0.251750 -0.684356
vn 0.628019 -0.459084 -0.628358
vn 0.445594 -0.454954 -0.771014
vn 0.684309 -0.251750 -0.684356
vn 0.482307 -0.254448 -0.838234
vn 0.445594 -0.454954 -0.771014
vn 0.229381 -0.457669 -0.859025
vn 0.482307 -0.254448 -0.838234
vn 0.250186 -0.251522 -0.934957
vn 0.229381 -0.457669 -0.859025
vn 0.003778 -0.454559 -0.890709
vn 0.250186 -0.251522 -0.934957
vn 0.000000 -0.250721 -0.968060
vn 0.003778 -0.454559 -0.890709
vn -0.229381 -0.457669 -0.859025
vn 0.000000 -0.250721 -0.968060
vn -0.252850 -0.248843 -0.934957
vn -0.229381 -0.457669 -0.859025
vn -0.442884 -0.457592 -0.771014
vn -0.252850 -0.248843 -0.934957
vn -0.484060 -0.251097 -0.838234
vn -0.442884 -0.457592 -0.771014
vn -0.630241 -0.456029 -0.628358
vn -0.484060 -0.251097 -0.838234
vn -0.684309 -0.251750 -0.684356
vn -0.630241 -0.456029 -0.628358
vn -0.770225 -0.457046 -0.444818
vn -0.684309 -0.251750 -0.684356
vn -0.837919 -0.253193 -0.483514
vn -0.770225 -0.457046 -0.444818
vn -0.860426 -0.453884 -0.231639
vn -0.837919 -0.253193 -0.483514
vn -0.934781 -0.253731 -0.248605
vn -0.860426 -0.453884 -0.231639
vn -0.888938 -0.458022 -0.002185
vn -0.934781 -0.253731 -0.248605
vn -0.967214 -0.253952 -0.002185
vn -0.773009 -0.634392 -0.002185
vn -0.750557 -0.629244 0.201782
vn -0.888938 -0.458022 -0.002185
vn -0.858933 -0.456703 0.231639
vn -0.669101 -0.633089 0.389234
vn -0.772468 -0.453243 0.444818
vn -0.669101 -0.633089 0.389234
vn -0.772468 -0.453243 0.444818
vn -0.545548 -0.634834 0.547141
vn -0.628466 -0.458472 0.628358
vn -0.385641 -0.632738 0.671508
vn -0.444264 -0.456252 0.771014
vn -0.385641 -0.632738 0.671508
vn -0.444264 -0.456252 0.771014
vn -0.198532 -0.632970 0.748288
vn -0.233922 -0.455365 0.859025
vn 0.000000 -0.633443 0.773790
vn -0.001884 -0.454571 0.890709
vn 0.000000 -0.633443 0.773790
vn -0.001884 -0.454571 0.890709
vn 0.202124 -0.631832 0.748288
vn 0.230566 -0.457074 0.859025
vn 0.388857 -0.630767 0.671508
vn 0.446956 -0.453616 0.771014
vn 0.388857 -0.630767 0.671508
vn 0.446956 -0.453616 0.771014
vn 0.548404 -0.632369 0.547141
vn 0.628466 -0.458472 0.628358
vn 0.671688 -0.630343 0.389234
vn 0.772468 -0.453243 0.444818
vn 0.671688 -0.630343 0.389234
vn 0.772468 -0.453243 0.444818
vn 0.748126 -0.632133 0.201782
vn 0.858933 -0.456703 0.231639
vn 0.773009 -0.634392 0.002185
vn 0.888938 -0.458022 0.002185
vn 0.773009 -0.634392 0.002185
vn 0.888938 -0.458022 0.002185
vn 0.748126 -0.632133 -0.201782
vn 0.858657 -0.457222 -0.231639
vn 0.671068 -0.631004 -0.389234
vn 0.772146 -0.453794 -0.444818
vn 0.671068 -0.631004 -0.389234
vn 0.772146 -0.453794 -0.444818
vn 0.547626 -0.633043 -0.547141
vn 0.628019 -0.459084 -0.628358
vn 0.387814 -0.631409 -0.671508
vn 0.445594 -0.454954 -0.771014
vn 0.387814 -0.631409 -0.671508
vn 0.445594 -0.454954 -0.771014
vn 0.200680 -0.632292 -0.748288
vn 0.229381 -0.457669 -0.859025
vn -0.001888 -0.633440 -0.773790
vn 0.003778 -0.454559 -0.890709
vn -0.001888 -0.633440 -0.773790
vn 0.003778 -0.454559 -0.890709
vn -0.200680 -0.632292 -0.748288
vn -0.229381 -0.457669 -0.859025
vn -0.387814 -0.631409 -0.671508
vn -0.442884 -0.457592 -0.771014
vn -0.387814 -0.631409 -0.671508
vn -0.442884 -0.457592 -0.771014
vn -0.547626 -0.633043 -0.547141
vn -0.630241 -0.456029 -0.628358
vn -0.671068 -0.631004 -0.389234
vn -0.770225 -0.457046 -0.444818
vn -0.671068 -0.631004 -0.389234
vn -0.770225 -0.457046 -0.444818
vn -0.750557 -0.629244 -0.201782
vn -0.860426 -0.453884 -0.231639
vn -0.773009 -0.634392 -0.002185
vn -0.888938 -0.458022 -0.002185
vn -0.530203 -0.847868 -0.002185
vn -0.651741 -0.758439 -0.002185
vn -0.508280 -0.850192 0.137202
vn -0.625165 -0.762323 0.167429
vn -0.457906 -0.848431 0.265495
vn -0.563389 -0.760038 0.323938
vn -0.371966 -0.849974 0.373076
vn -0.461170 -0.758520 0.460402
vn -0.382411 -0.918290 0.102500
vn -0.340008 -0.919450 0.197500
vn -0.277011 -0.918460 0.282304
vn -0.202340 -0.959194 0.197500
vn -0.277011 -0.918460 0.282304
vn -0.137321 -0.959909 0.244371
vn -0.198379 -0.917576 0.344528
vn -0.071603 -0.960277 0.269705
vn -0.101637 -0.918902 0.381169
vn -0.001886 -0.959323 0.282304
vn 0.000000 -0.917703 0.397268
vn -0.135301 -0.849433 0.510057
vn -0.265593 -0.849147 0.456519
vn -0.328338 -0.759410 0.561686
vn -0.461170 -0.758520 0.460402
vn -0.371966 -0.849974 0.373076
vn -0.164690 -0.760292 0.628358
vn -0.001886 -0.848791 0.528725
vn 0.003772 -0.761176 0.648534
vn -0.001886 -0.959323 0.282304
vn 0.000000 -0.917703 0.397268
vn 0.071603 -0.960277 0.269705
vn 0.101637 -0.918902 0.381169
vn 0.141057 -0.959368 0.244371
vn 0.198379 -0.917576 0.344528
vn 0.202340 -0.959194 0.197500
vn 0.280620 -0.917364 0.282304
vn 0.261990 -0.850265 0.456519
vn 0.135301 -0.849433 0.510057
vn 0.164690 -0.760292 0.628358
vn 0.003772 -0.761176 0.648534
vn -0.001886 -0.848791 0.528725
vn 0.324872 -0.760899 0.561686
vn 0.375418 -0.848455 0.373076
vn 0.457941 -0.760473 0.460402
vn 0.280620 -0.917364 0.282304
vn 0.375418 -0.848455 0.373076
vn 0.340008 -0.919450 0.197500
vn 0.454583 -0.850215 0.265495
vn 0.382411 -0.918290 0.102500
vn 0.511514 -0.848251 0.137202
vn 0.563389 -0.760038 0.323938
vn 0.628077 -0.759925 0.167429
vn 0.530203 -0.847868 0.002185
vn 0.651741 -0.758439 0.002185
vn 0.457941 -0.760473 0.460402
vn 0.627261 -0.760599 -0.167429
vn 0.510455 -0.848888 -0.137202
vn 0.651741 -0.758439 0.002185
vn 0.530203 -0.847868 0.002185
vn 0.382411 -0.918290 -0.102500
vn 0.396592 -0.917992 0.002185
vn 0.272098 -0.959570 -0.072033
vn 0.283049 -0.959103 0.002185
vn 0.170986 -0.984206 -0.045863
vn 0.180255 -0.983618 -0.002185
vn 0.272098 -0.959570 0.072033
vn 0.170986 -0.984206 0.045863
vn 0.246479 -0.958759 0.141528
vn 0.340008 -0.919450 0.197500
vn 0.280620 -0.917364 0.282304
vn 0.202340 -0.959194 0.197500
vn 0.152265 -0.984283 0.089453
vn 0.124213 -0.984451 0.124206
vn 0.141057 -0.959368 0.244371
vn 0.086736 -0.984179 0.154492
vn 0.071603 -0.960277 0.269705
vn 0.045276 -0.984102 0.171735
vn -0.001886 -0.959323 0.282304
vn -0.001888 -0.984382 0.176038
vn 0.511514 -0.848251 0.137202
vn 0.382411 -0.918290 0.102500
vn 0.170986 -0.984206 -0.045863
vn 0.272098 -0.959570 -0.072033
vn 0.152265 -0.984283 -0.089453
vn 0.246479 -0.958759 -0.141528
vn 0.124213 -0.984451 -0.124206
vn 0.202340 -0.959194 -0.197500
vn 0.340008 -0.919450 -0.197500
vn 0.382411 -0.918290 -0.102500
vn 0.510455 -0.848888 -0.137202
vn 0.460090 -0.847248 -0.265495
vn 0.627261 -0.760599 -0.167429
vn 0.562488 -0.760705 -0.323938
vn 0.086736 -0.984179 -0.154492
vn 0.141057 -0.959368 -0.244371
vn 0.045276 -0.984102 -0.171735
vn 0.069809 -0.960409 -0.269705
vn -0.001888 -0.984382 -0.176038
vn -0.003777 -0.959318 -0.282304
vn 0.099892 -0.919093 -0.381169
vn -0.001889 -0.917701 -0.397268
vn 0.279155 -0.917811 -0.282304
vn 0.374149 -0.849016 -0.373076
vn 0.456881 -0.761111 -0.460402
vn 0.267742 -0.848472 -0.456519
vn 0.196783 -0.917920 -0.344528
vn 0.001889 -0.761183 -0.648534
vn 0.170473 -0.759016 -0.628358
vn -0.003777 -0.848785 -0.528725
vn 0.133622 -0.849698 -0.510057
vn 0.323581 -0.761449 -0.561686
vn -0.001888 -0.984382 -0.176038
vn -0.045276 -0.984102 -0.171735
vn -0.003777 -0.959318 -0.282304
vn -0.073575 -0.960128 -0.269705
vn -0.001889 -0.917701 -0.397268
vn -0.103646 -0.918677 -0.381169
vn -0.003777 -0.848785 -0.528725
vn -0.137355 -0.849103 -0.510057
vn 0.001889 -0.761183 -0.648534
vn -0.166786 -0.759835 -0.628358
vn -0.086736 -0.984179 -0.154492
vn -0.137321 -0.959909 -0.244371
vn -0.200474 -0.917121 -0.344528
vn -0.124213 -0.984451 -0.124206
vn -0.202340 -0.959194 -0.197500
vn -0.155994 -0.983699 -0.089453
vn -0.246479 -0.958759 -0.141528
vn -0.279155 -0.917811 -0.282304
vn -0.340008 -0.919450 -0.197500
vn -0.267742 -0.848472 -0.456519
vn -0.374149 -0.849016 -0.373076
vn -0.323581 -0.761449 -0.561686
vn -0.456881 -0.761111 -0.460402
vn -0.460090 -0.847248 -0.265495
vn -0.565520 -0.758454 -0.323938
vn -0.651741 -0.758439 -0.002185
vn -0.627261 -0.760599 -0.167429
vn -0.530203 -0.847868 -0.002185
vn -0.510455 -0.848888 -0.137202
vn -0.396592 -0.917992 0.002185
vn -0.382411 -0.918290 0.102500
vn -0.272098 -0.959570 0.072033
vn -0.246479 -0.958759 0.141528
vn -0.340008 -0.919450 0.197500
vn -0.202340 -0.959194 0.197500
vn -0.277011 -0.918460 0.282304
vn -0.565520 -0.758454 -0.323938
vn -0.460090 -0.847248 -0.265495
vn -0.508280 -0.850192 0.137202
vn -0.124213 -0.984451 0.124206
vn -0.155994 -0.983699 0.089453
vn -0.167264 -0.984845 0.045863
vn -0.283049 -0.959103 -0.002185
vn -0.180255 -0.983618 0.002185
vn -0.382411 -0.918290 -0.102500
vn -0.340008 -0.919450 -0.197500
vn -0.272098 -0.959570 -0.072033
vn -0.246479 -0.958759 -0.141528
vn -0.167264 -0.984845 -0.045863
vn -0.155994 -0.983699 -0.089453
vn -0.086736 -0.984179 0.154492
vn -0.137321 -0.959909 0.244371
vn -0.045276 -0.984102 0.171735
vn -0.071603 -0.960277 0.269705
vn -0.001888 -0.984382 0.176038
vn -0.001886 -0.959323 0.282304
vn -0.167264 -0.984845 0.045863
vn 0.000000 -0.999998 -0.002185
vn -0.180255 -0.983618 0.002185
vn -0.167264 -0.984845 -0.045863
vn -0.155994 -0.983699 -0.089453
vn -0.124213 -0.984451 -0.124206
vn -0.086736 -0.984179 -0.154492
vn -0.045276 -0.984102 -0.171735
vn -0.001888 -0.984382 -0.176038
vn 0.045276 -0.984102 -0.171735
vn 0.086736 -0.984179 -0.154492
vn 0.124213 -0.984451 -0.124206
vn 0.152265 -0.984283 -0.089453
vn 0.170986 -0.984206 -0.045863
vn 0.180255 -0.983618 -0.002185
vn 0.170986 -0.984206 0.045863
vn 0.152265 -0.984283 0.089453
vn 0.124213 -0.984451 0.124206
vn 0.086736 -0.984179 0.154492
vn 0.045276 -0.984102 0.171735
vn -0.001888 -0.984382 0.176038
vn -0.045276 -0.984102 0.171735
vn -0.086736 -0.984179 0.154492
vn -0.124213 -0.984451 0.124206
vn -0.155994 -0.983699 0.089453
vn -0.625165 -0.762323 0.167429
vn -0.750557 -0.629244 0.201782
vn -0.563389 -0.760038 0.323938
vn -0.669101 -0.633089 0.389234
vn -0.461170 -0.758520 0.460402
vn -0.545548 -0.634834 0.547141
vn -0.750557 -0.629244 0.201782
vn -0.625165 -0.762323 0.167429
vn -0.773009 -0.634392 -0.002185
vn -0.651741 -0.758439 -0.002185
vn -0.750557 -0.629244 -0.201782
vn -0.627261 -0.760599 -0.167429
vn -0.750557 -0.629244 -0.201782
vn -0.627261 -0.760599 -0.167429
vn -0.671068 -0.631004 -0.389234
vn -0.565520 -0.758454 -0.323938
vn -0.547626 -0.633043 -0.547141
vn -0.456881 -0.761111 -0.460402
vn -0.547626 -0.633043 -0.547141
vn -0.456881 -0.761111 -0.460402
vn -0.387814 -0.631409 -0.671508
vn -0.323581 -0.761449 -0.561686
vn -0.200680 -0.632292 -0.748288
vn -0.166786 -0.759835 -0.628358
vn -0.200680 -0.632292 -0.748288
vn -0.166786 -0.759835 -0.628358
vn -0.001888 -0.633440 -0.773790
vn 0.001889 -0.761183 -0.648534
vn 0.200680 -0.632292 -0.748288
vn 0.170473 -0.759016 -0.628358
vn 0.200680 -0.632292 -0.748288
vn 0.170473 -0.759016 -0.628358
vn 0.387814 -0.631409 -0.671508
vn 0.323581 -0.761449 -0.561686
vn 0.547626 -0.633043 -0.547141
vn 0.456881 -0.761111 -0.460402
vn 0.547626 -0.633043 -0.547141
vn 0.456881 -0.761111 -0.460402
vn 0.671068 -0.631004 -0.389234
vn 0.562488 -0.760705 -0.323938
vn 0.748126 -0.632133 -0.201782
vn 0.627261 -0.760599 -0.167429
vn 0.748126 -0.632133 -0.201782
vn 0.627261 -0.760599 -0.167429
vn 0.773009 -0.634392 0.002185
vn 0.651741 -0.758439 0.002185
vn 0.748126 -0.632133 0.201782
vn 0.628077 -0.759925 0.167429
vn 0.748126 -0.632133 0.201782
vn 0.628077 -0.759925 0.167429
vn 0.671688 -0.630343 0.389234
vn 0.563389 -0.760038 0.323938
vn 0.548404 -0.632369 0.547141
vn 0.457941 -0.760473 0.460402
vn 0.548404 -0.632369 0.547141
vn 0.457941 -0.760473 0.460402
vn 0.388857 -0.630767 0.671508
vn 0.324872 -0.760899 0.561686
vn 0.202124 -0.631832 0.748288
vn 0.164690 -0.760292 0.628358
vn 0.003772 -0.761176 0.648534
vn 0.000000 -0.633443 0.773790
vn 0.164690 -0.760292 0.628358
vn 0.202124 -0.631832 0.748288
vn -0.164690 -0.760292 0.628358
vn -0.198532 -0.632970 0.748288
vn 0.003772 -0.761176 0.648534
vn 0.000000 -0.633443 0.773790
vn -0.198532 -0.632970 0.748288
vn -0.164690 -0.760292 0.628358
vn -0.385641 -0.632738 0.671508
vn -0.328338 -0.759410 0.561686
vn -0.545548 -0.634834 0.547141
vn -0.461170 -0.758520 0.460402
vt 0.360552 0.020683
vt 0.288112 0.289512
vt 0.288594 0.011090
vt 0.216515 0.020443
vt 0.149249 0.048141
vt 0.091610 0.092386
vt 0.047207 0.149941
vt 0.019290 0.217089
vt 0.009664 0.289152
vt 0.019050 0.361216
vt 0.046846 0.428363
vt 0.091008 0.486158
vt 0.148647 0.530523
vt 0.215672 0.558341
vt 0.287751 0.567934
vt 0.359830 0.558581
vt 0.427096 0.530883
vt 0.484735 0.486757
vt 0.529137 0.429083
vt 0.557054 0.361935
vt 0.566560 0.289872
vt 0.557175 0.217808
vt 0.529498 0.150661
vt 0.485336 0.092866
vt 0.427697 0.048621
vt 0.254299 0.620692
vt 0.214228 0.620692
vt 0.254299 0.581243
vt 0.214228 0.581243
vt 0.214228 0.620692
vt 0.168141 0.620692
vt 0.214228 0.581243
vt 0.168141 0.581243
vt 0.168141 0.620692
vt 0.125062 0.620692
vt 0.168141 0.581243
vt 0.125062 0.581243
vt 0.125062 0.620692
vt 0.081983 0.620692
vt 0.125062 0.581243
vt 0.081983 0.581243
vt 0.081983 0.620692
vt 0.043598 0.620692
vt 0.081983 0.581243
vt 0.043598 0.581243
vt 0.043598 0.620692
vt 0.008220 0.620692
vt 0.043598 0.581243
vt 0.008220 0.581243
vt 0.993859 0.620692
vt 0.967868 0.620692
vt 0.993859 0.581243
vt 0.967868 0.581243
vt 0.967868 0.620692
vt 0.926353 0.620692
vt 0.967868 0.581243
vt 0.926353 0.581243
vt 0.926353 0.620692
vt 0.887847 0.620692
vt 0.926353 0.581243
vt 0.887847 0.581243
vt 0.887847 0.620692
vt 0.849461 0.620692
vt 0.887847 0.581243
vt 0.849461 0.581243
vt 0.849461 0.620692
vt 0.806382 0.620692
vt 0.849461 0.581243
vt 0.806382 0.581243
vt 0.806382 0.620692
vt 0.761739 0.620692
vt 0.806382 0.581243
vt 0.761739 0.581243
vt 0.761739 0.620692
vt 0.718660 0.620692
vt 0.761739 0.581243
vt 0.718660 0.581243
vt 0.718660 0.620692
vt 0.678710 0.620692
vt 0.718660 0.581243
vt 0.678710 0.581243
vt 0.678710 0.620692
vt 0.641888 0.620692
vt 0.678710 0.581243
vt 0.641888 0.581243
vt 0.641888 0.620692
vt 0.592552 0.620692
vt 0.641888 0.581243
vt 0.592552 0.581243
vt 0.592552 0.620692
vt 0.549594 0.620692
vt 0.592552 0.581243
vt 0.549594 0.581243
vt 0.549594 0.620692
vt 0.506515 0.620692
vt 0.549594 0.581243
vt 0.506515 0.581243
vt 0.506515 0.620692
vt 0.465000 0.620692
vt 0.506515 0.581243
vt 0.465000 0.581243
vt 0.465000 0.620692
vt 0.424930 0.620692
vt 0.465000 0.581243
vt 0.424930 0.581243
vt 0.424930 0.620692
vt 0.384979 0.620692
vt 0.424930 0.581243
vt 0.384979 0.581243
vt 0.384979 0.620692
vt 0.341901 0.620692
vt 0.384979 0.581243
vt 0.341901 0.581243
vt 0.341901 0.620692
vt 0.300386 0.620692
vt 0.341901 0.581243
vt 0.300386 0.581243
vt 0.300386 0.620692
vt 0.254299 0.620692
vt 0.300386 0.581243
vt 0.254299 0.581243
vt 0.254299 0.674170
vt 0.214228 0.674170
vt 0.254299 0.620692
vt 0.214228 0.620692
vt 0.214228 0.674170
vt 0.168141 0.674170
vt 0.214228 0.620692
vt 0.168141 0.620692
vt 0.168141 0.674170
vt 0.125062 0.674170
vt 0.168141 0.620692
vt 0.125062 0.620692
vt 0.125062 0.674170
vt 0.081983 0.674170
vt 0.125062 0.620692
vt 0.081983 0.620692
vt 0.081983 0.674170
vt 0.043598 0.674170
vt 0.081983 0.620692
vt 0.043598 0.620692
vt 0.043598 0.674170
vt 0.008220 0.674170
vt 0.043598 0.620692
vt 0.008220 0.620692
vt 0.993859 0.674170
vt 0.967868 0.674170
vt 0.993859 0.620692
vt 0.967868 0.620692
vt 0.967868 0.674170
vt 0.926353 0.674170
vt 0.967868 0.620692
vt 0.926353 0.620692
vt 0.926353 0.674170
vt 0.887847 0.674170
vt 0.926353 0.620692
vt 0.887847 0.620692
vt 0.887847 0.674170
vt 0.849461 0.674170
vt 0.887847 0.620692
vt 0.849461 0.620692
vt 0.849461 0.674170
vt 0.806382 0.674170
vt 0.849461 0.620692
vt 0.806382 0.620692
vt 0.806382 0.674170
vt 0.761739 0.674170
vt 0.806382 0.620692
vt 0.761739 0.620692
vt 0.761739 0.674170
vt 0.718660 0.674170
vt 0.761739 0.620692
vt 0.718660 0.620692
vt 0.718660 0.674170
vt 0.678710 0.674170
vt 0.718660 0.620692
vt 0.678710 0.620692
vt 0.678710 0.674170
vt 0.641888 0.674170
vt 0.678710 0.620692
vt 0.641888 0.620692
vt 0.641888 0.674170
vt 0.592552 0.674170
vt 0.641888 0.620692
vt 0.592552 0.620692
vt 0.592552 0.674170
vt 0.549594 0.674170
vt 0.592552 0.620692
vt 0.549594 0.620692
vt 0.549594 0.674170
vt 0.506515 0.674170
vt 0.549594 0.620692
vt 0.506515 0.620692
vt 0.506515 0.674170
vt 0.465000 0.674170
vt 0.506515 0.620692
vt 0.465000 0.620692
vt 0.465000 0.674170
vt 0.424930 0.674170
vt 0.465000 0.620692
vt 0.424930 0.620692
vt 0.424930 0.674170
vt 0.384979 0.674170
vt 0.424930 0.620692
vt 0.384979 0.620692
vt 0.384979 0.674170
vt 0.341901 0.674170
vt 0.384979 0.620692
vt 0.341901 0.620692
vt 0.341901 0.674170
vt 0.300386 0.674170
vt 0.341901 0.620692
vt 0.300386 0.620692
vt 0.300386 0.674170
vt 0.254299 0.674170
vt 0.300386 0.620692
vt 0.254299 0.620692
vt 0.254299 0.715058
vt 0.214228 0.715058
vt 0.254299 0.674170
vt 0.214228 0.674170
vt 0.168141 0.715058
vt 0.168141 0.674170
vt 0.168141 0.715058
vt 0.168141 0.674170
vt 0.125062 0.715058
vt 0.125062 0.674170
vt 0.081983 0.715058
vt 0.081983 0.674170
vt 0.081983 0.715058
vt 0.081983 0.674170
vt 0.043598 0.715058
vt 0.043598 0.674170
vt 0.008220 0.715058
vt 0.008220 0.674170
vt 0.993859 0.715058
vt 0.993859 0.674170
vt 0.967868 0.715058
vt 0.967868 0.674170
vt 0.926353 0.715058
vt 0.926353 0.674170
vt 0.926353 0.715058
vt 0.926353 0.674170
vt 0.887847 0.715058
vt 0.887847 0.674170
vt 0.849461 0.715058
vt 0.849461 0.674170
vt 0.849461 0.715058
vt 0.849461 0.674170
vt 0.806382 0.715058
vt 0.806382 0.674170
vt 0.761739 0.715058
vt 0.761739 0.674170
vt 0.761739 0.715058
vt 0.761739 0.674170
vt 0.718660 0.715058
vt 0.718660 0.674170
vt 0.678710 0.715058
vt 0.678710 0.674170
vt 0.678710 0.715058
vt 0.678710 0.674170
vt 0.641888 0.715058
vt 0.641888 0.674170
vt 0.592552 0.715058
vt 0.592552 0.674170
vt 0.592552 0.715058
vt 0.592552 0.674170
vt 0.549594 0.715058
vt 0.549594 0.674170
vt 0.506515 0.715058
vt 0.506515 0.674170
vt 0.506515 0.715058
vt 0.506515 0.674170
vt 0.465000 0.715058
vt 0.465000 0.674170
vt 0.424930 0.715058
vt 0.424930 0.674170
vt 0.424930 0.715058
vt 0.424930 0.674170
vt 0.384979 0.715058
vt 0.384979 0.674170
vt 0.341901 0.715058
vt 0.341901 0.674170
vt 0.341901 0.715058
vt 0.341901 0.674170
vt 0.300386 0.715058
vt 0.300386 0.674170
vt 0.254299 0.715058
vt 0.254299 0.674170
vt 0.254299 0.803189
vt 0.254299 0.758944
vt 0.214228 0.803189
vt 0.214228 0.758944
vt 0.168141 0.803189
vt 0.168141 0.758944
vt 0.125062 0.803189
vt 0.125062 0.758944
vt 0.214228 0.843957
vt 0.168141 0.843957
vt 0.125062 0.843957
vt 0.125062 0.896116
vt 0.125062 0.843957
vt 0.081983 0.896116
vt 0.081983 0.843957
vt 0.043598 0.896116
vt 0.043598 0.843957
vt 0.008220 0.896116
vt 0.008220 0.843957
vt 0.043598 0.803189
vt 0.081983 0.803189
vt 0.081983 0.758944
vt 0.125062 0.758944
vt 0.125062 0.803189
vt 0.043598 0.758944
vt 0.008220 0.803189
vt 0.008220 0.758944
vt 0.993859 0.896116
vt 0.993859 0.843957
vt 0.967868 0.896116
vt 0.967868 0.843957
vt 0.926353 0.896116
vt 0.926353 0.843957
vt 0.887847 0.896116
vt 0.887847 0.843957
vt 0.926353 0.803189
vt 0.967868 0.803189
vt 0.967868 0.758944
vt 0.993859 0.758944
vt 0.993859 0.803189
vt 0.926353 0.758944
vt 0.887847 0.803189
vt 0.887847 0.758944
vt 0.887847 0.843957
vt 0.887847 0.803189
vt 0.849461 0.843957
vt 0.849461 0.803189
vt 0.806382 0.843957
vt 0.806382 0.803189
vt 0.849461 0.758944
vt 0.806382 0.758944
vt 0.761739 0.803189
vt 0.761739 0.758944
vt 0.887847 0.758944
vt 0.718660 0.758944
vt 0.718660 0.803189
vt 0.761739 0.758944
vt 0.761739 0.803189
vt 0.718660 0.843957
vt 0.761739 0.843957
vt 0.718660 0.896116
vt 0.761739 0.896116
vt 0.718660 0.993240
vt 0.761739 0.993240
vt 0.806382 0.896116
vt 0.806382 0.993240
vt 0.849461 0.896116
vt 0.849461 0.843957
vt 0.887847 0.843957
vt 0.887847 0.896116
vt 0.849461 0.993240
vt 0.887847 0.993240
vt 0.926353 0.896116
vt 0.926353 0.993240
vt 0.967868 0.896116
vt 0.967868 0.993240
vt 0.993859 0.896116
vt 0.993859 0.993240
vt 0.806382 0.803189
vt 0.806382 0.843957
vt 0.718660 0.993240
vt 0.718660 0.896116
vt 0.678710 0.993240
vt 0.678710 0.896116
vt 0.641888 0.993240
vt 0.641888 0.896116
vt 0.678710 0.843957
vt 0.718660 0.843957
vt 0.718660 0.803189
vt 0.678710 0.803189
vt 0.718660 0.758944
vt 0.678710 0.758944
vt 0.594598 0.993240
vt 0.592552 0.896116
vt 0.549594 0.993240
vt 0.549594 0.896116
vt 0.506515 0.993240
vt 0.506515 0.896116
vt 0.549594 0.843957
vt 0.506515 0.843957
vt 0.641888 0.843957
vt 0.641888 0.803189
vt 0.641888 0.758944
vt 0.592552 0.803189
vt 0.592552 0.843957
vt 0.506515 0.758944
vt 0.549594 0.758944
vt 0.506515 0.803189
vt 0.549594 0.803189
vt 0.592552 0.758944
vt 0.506515 0.993240
vt 0.465000 0.993240
vt 0.506515 0.896116
vt 0.465000 0.896116
vt 0.506515 0.843957
vt 0.465000 0.843957
vt 0.506515 0.803189
vt 0.465000 0.803189
vt 0.506515 0.758944
vt 0.465000 0.758944
vt 0.424930 0.993240
vt 0.424930 0.896116
vt 0.424930 0.843957
vt 0.384979 0.993240
vt 0.384979 0.896116
vt 0.348038 0.993240
vt 0.341901 0.896116
vt 0.384979 0.843957
vt 0.341901 0.843957
vt 0.424930 0.803189
vt 0.384979 0.803189
vt 0.424930 0.758944
vt 0.384979 0.758944
vt 0.341901 0.803189
vt 0.341901 0.758944
vt 0.254299 0.758944
vt 0.300386 0.758944
vt 0.254299 0.803189
vt 0.300386 0.803189
vt 0.254299 0.843957
vt 0.214228 0.843957
vt 0.214228 0.896116
vt 0.168141 0.896116
vt 0.168141 0.843957
vt 0.125062 0.896116
vt 0.125062 0.843957
vt 0.341901 0.758944
vt 0.341901 0.803189
vt 0.214228 0.803189
vt 0.125062 0.993240
vt 0.168141 0.993240
vt 0.214228 0.993240
vt 0.254299 0.896116
vt 0.254299 0.993240
vt 0.300386 0.843957
vt 0.341901 0.843957
vt 0.300386 0.896116
vt 0.341901 0.896116
vt 0.300386 0.993240
vt 0.348038 0.993240
vt 0.081983 0.993240
vt 0.081983 0.896116
vt 0.049614 0.993240
vt 0.043598 0.896116
vt 0.008220 0.993240
vt 0.008220 0.896116
vt 0.780029 0.476086
vt 0.662585 0.448507
vt 0.768959 0.505583
vt 0.750548 0.531242
vt 0.726121 0.551147
vt 0.697482 0.564217
vt 0.666316 0.569253
vt 0.635029 0.566135
vt 0.605548 0.554984
vt 0.579917 0.536638
vt 0.560063 0.512177
vt 0.547187 0.483400
vt 0.542133 0.452344
vt 0.545262 0.420929
vt 0.556453 0.391432
vt 0.574743 0.365772
vt 0.599050 0.345748
vt 0.627809 0.332798
vt 0.658855 0.327762
vt 0.690141 0.330880
vt 0.719623 0.342031
vt 0.745253 0.360376
vt 0.765108 0.384837
vt 0.778104 0.413495
vt 0.783158 0.444670
vt 0.214228 0.758944
vt 0.214228 0.715058
vt 0.168141 0.758944
vt 0.168141 0.715058
vt 0.125062 0.758944
vt 0.125062 0.715058
vt 0.214228 0.715058
vt 0.214228 0.758944
vt 0.254299 0.715058
vt 0.254299 0.758944
vt 0.300386 0.715058
vt 0.300386 0.758944
vt 0.300386 0.715058
vt 0.300386 0.758944
vt 0.341901 0.715058
vt 0.341901 0.758944
vt 0.384979 0.715058
vt 0.384979 0.758944
vt 0.384979 0.715058
vt 0.384979 0.758944
vt 0.424930 0.715058
vt 0.424930 0.758944
vt 0.465000 0.715058
vt 0.465000 0.758944
vt 0.465000 0.715058
vt 0.465000 0.758944
vt 0.506515 0.715058
vt 0.506515 0.758944
vt 0.549594 0.715058
vt 0.549594 0.758944
vt 0.549594 0.715058
vt 0.549594 0.758944
vt 0.592552 0.715058
vt 0.592552 0.758944
vt 0.641888 0.715058
vt 0.641888 0.758944
vt 0.641888 0.715058
vt 0.641888 0.758944
vt 0.678710 0.715058
vt 0.678710 0.758944
vt 0.718660 0.715058
vt 0.718660 0.758944
vt 0.718660 0.715058
vt 0.718660 0.758944
vt 0.761739 0.715058
vt 0.761739 0.758944
vt 0.806382 0.715058
vt 0.806382 0.758944
vt 0.806382 0.715058
vt 0.806382 0.758944
vt 0.849461 0.715058
vt 0.849461 0.758944
vt 0.887847 0.715058
vt 0.887847 0.758944
vt 0.887847 0.715058
vt 0.887847 0.758944
vt 0.926353 0.715058
vt 0.926353 0.758944
vt 0.967868 0.715058
vt 0.967868 0.758944
vt 0.993859 0.758944
vt 0.993859 0.715058
vt 0.967868 0.758944
vt 0.967868 0.715058
vt 0.043598 0.758944
vt 0.043598 0.715058
vt 0.008220 0.758944
vt 0.008220 0.715058
vt 0.043598 0.715058
vt 0.043598 0.758944
vt 0.081983 0.715058
vt 0.081983 0.758944
vt 0.125062 0.715058
vt 0.125062 0.758944
f 1/1/1 2/2/2 3/3/3
f 3/3/3 2/2/2 4/4/4
f 4/4/4 2/2/2 5/5/5
f 5/5/5 2/2/2 6/6/6
f 6/6/6 2/2/2 7/7/7
f 7/7/7 2/2/2 8/8/8
f 8/8/8 2/2/2 9/9/9
f 9/9/9 2/2/2 10/10/10
f 10/10/10 2/2/2 11/11/11
f 11/11/11 2/2/2 12/12/12
f 12/12/12 2/2/2 13/13/13
f 13/13/13 2/2/2 14/14/14
f 14/14/14 2/2/2 15/15/15
f 15/15/15 2/2/2 16/16/16
f 16/16/16 2/2/2 17/17/17
f 17/17/17 2/2/2 18/18/18
f 18/18/18 2/2/2 19/19/19
f 19/19/19 2/2/2 20/20/20
f 20/20/20 2/2/2 21/21/21
f 21/21/21 2/2/2 22/22/22
f 22/22/22 2/2/2 23/23/23
f 23/23/23 2/2/2 24/24/24
f 24/24/24 2/2/2 25/25/25
f 2/2/2 1/1/1 25/25/25
f 26/26/26 27/27/27 28/28/28
f 27/27/27 29/29/29 28/28/28
f 30/30/30 31/31/31 32/32/32
f 31/31/31 33/33/33 32/32/32
f 34/34/34 35/35/35 36/36/36
f 35/35/35 37/37/37 36/36/36
f 38/38/38 39/39/39 40/40/40
f 39/39/39 41/41/41 40/40/40
f 42/42/42 43/43/43 44/44/44
f 43/43/43 45/45/45 44/44/44
f 46/46/46 47/47/47 48/48/48
f 47/47/47 49/49/49 48/48/48
f 50/50/50 51/51/51 52/52/52
f 51/51/51 53/53/53 52/52/52
f 54/54/54 55/55/55 56/56/56
f 55/55/55 57/57/57 56/56/56
f 58/58/58 59/59/59 60/60/60
f 59/59/59 61/61/61 60/60/60
f 62/62/62 63/63/63 64/64/64
f 63/63/63 65/65/65 64/64/64
f 66/66/66 67/67/67 68/68/68
f 67/67/67 69/69/69 68/68/68
f 70/70/70 71/71/71 72/72/72
f 71/71/71 73/73/73 72/72/72
f 74/74/74 75/75/75 76/76/76
f 75/75/75 77/77/77 76/76/76
f 78/78/78 79/79/79 80/80/80
f 79/79/79 81/81/81 80/80/80
f 82/82/82 83/83/83 84/84/84
f 83/83/83 85/85/85 84/84/84
f 86/86/86 87/87/87 88/88/88
f 87/87/87 89/89/89 88/88/88
f 90/90/90 91/91/91 92/92/92
f 91/91/91 93/93/93 92/92/92
f 94/94/94 95/95/95 96/96/96
f 95/95/95 97/97/97 96/96/96
f 98/98/98 99/99/99 100/100/100
f 99/99/99 101/101/101 100/100/100
f 102/102/102 103/103/103 104/104/104
f 103/103/103 105/105/105 104/104/104
f 106/106/106 107/107/107 108/108/108
f 107/107/107 109/109/109 108/108/108
f 110/110/110 111/111/111 112/112/112
f 111/111/111 113/113/113 112/112/112
f 114/114/114 115/115/115 116/116/116
f 115/115/115 117/117/117 116/116/116
f 118/118/118 119/119/119 120/120/120
f 119/119/119 121/121/121 120/120/120
f 122/122/122 123/123/123 124/124/124
f 123/123/123 125/125/125 124/124/124
f 126/126/126 127/127/127 128/128/128
f 127/127/127 129/129/129 128/128/128
f 130/130/130 131/131/131 132/132/132
f 131/131/131 133/133/133 132/132/132
f 134/134/134 135/135/135 136/136/136
f 135/135/135 137/137/137 136/136/136
f 138/138/138 139/139/139 140/140/140
f 139/139/139 141/141/141 140/140/140
f 142/142/142 143/143/143 144/144/144
f 143/143/143 145/145/145 144/144/144
f 146/146/146 147/147/147 148/148/148
f 147/147/147 149/149/149 148/148/148
f 150/150/150 151/151/151 152/152/152
f 151/151/151 153/153/153 152/152/152
f 154/154/154 155/155/155 156/156/156
f 155/155/155 157/157/157 156/156/156
f 158/158/158 159/159/159 160/160/160
f 159/159/159 161/161/161 160/160/160
f 162/162/162 163/163/163 164/164/164
f 163/163/163 165/165/165 164/164/164
f 166/166/166 167/167/167 168/168/168
f 167/167/167 169/169/169 168/168/168
f 170/170/170 171/171/171 172/172/172
f 171/171/171 173/173/173 172/172/172
f 174/174/174 175/175/175 176/176/176
f 175/175/175 177/177/177 176/176/176
f 178/178/178 179/179/179 180/180/180
f 179/179/179 181/181/181 180/180/180
f 182/182/182 183/183/183 184/184/184
f 183/183/183 185/185/185 184/184/184
f 186/186/186 187/187/187 188/188/188
f 187/187/187 189/189/189 188/188/188
f 190/190/190 191/191/191 192/192/192
f 191/191/191 193/193/193 192/192/192
f 194/194/194 195/195/195 196/196/196
f 195/195/195 197/197/197 196/196/196
f 198/198/198 199/199/199 200/200/200
f 199/199/199 201/201/201 200/200/200
f 202/202/202 203/203/203 204/204/204
f 203/203/203 205/205/205 204/204/204
f 206/206/206 207/207/207 208/208/208
f 207/207/207 209/209/209 208/208/208
f 210/210/210 211/211/211 212/212/212
f 211/211/211 213/213/213 212/212/212
f 214/214/214 215/215/215 216/216/216
f 215/215/215 217/217/217 216/216/216
f 218/218/218 219/219/219 220/220/220
f 220/220/220 219/219/219 221/221/221
f 219/219/219 222/222/222 221/221/221
f 221/221/221 222/222/222 223/223/223
f 224/224/224 226/226/226 225/225/225
f 225/225/225 226/226/226 227/227/227
f 226/226/226 228/228/228 227/227/227
f 227/227/227 228/228/228 229/229/229
f 230/230/230 232/232/232 231/231/231
f 231/231/231 232/232/232 233/233/233
f 232/232/232 234/234/234 233/233/233
f 233/233/233 234/234/234 235/235/235
f 236/236/236 238/238/238 237/237/237
f 237/237/237 238/238/238 239/239/239
f 238/238/238 240/240/240 239/239/239
f 239/239/239 240/240/240 241/241/241
f 242/242/242 244/244/244 243/243/243
f 243/243/243 244/244/244 245/245/245
f 244/244/244 246/246/246 245/245/245
f 245/245/245 246/246/246 247/247/247
f 248/248/248 250/250/250 249/249/249
f 249/249/249 250/250/250 251/251/251
f 250/250/250 252/252/252 251/251/251
f 251/251/251 252/252/252 253/253/253
f 254/254/254 256/256/256 255/255/255
f 255/255/255 256/256/256 257/257/257
f 256/256/256 258/258/258 257/257/257
f 257/257/257 258/258/258 259/259/259
f 260/260/260 262/262/262 261/261/261
f 261/261/261 262/262/262 263/263/263
f 262/262/262 264/264/264 263/263/263
f 263/263/263 264/264/264 265/265/265
f 266/266/266 268/268/268 267/267/267
f 267/267/267 268/268/268 269/269/269
f 268/268/268 270/270/270 269/269/269
f 269/269/269 270/270/270 271/271/271
f 272/272/272 274/274/274 273/273/273
f 273/273/273 274/274/274 275/275/275
f 274/274/274 276/276/276 275/275/275
f 275/275/275 276/276/276 277/277/277
f 278/278/278 280/280/280 279/279/279
f 279/279/279 280/280/280 281/281/281
f 280/280/280 282/282/282 281/281/281
f 281/281/281 282/282/282 283/283/283
f 284/284/284 286/286/286 285/285/285
f 285/285/285 286/286/286 287/287/287
f 286/286/286 288/288/288 287/287/287
f 287/287/287 288/288/288 289/289/289
f 290/290/290 292/292/292 291/291/291
f 291/291/291 292/292/292 293/293/293
f 292/292/292 294/294/294 293/293/293
f 293/293/293 294/294/294 295/295/295
f 294/294/294 296/296/296 295/295/295
f 295/295/295 296/296/296 297/297/297
f 298/298/298 299/299/299 292/292/292
f 292/292/292 299/299/299 294/294/294
f 299/299/299 300/300/300 294/294/294
f 294/294/294 300/300/300 296/296/296
f 301/301/301 303/303/303 302/302/302
f 302/302/302 303/303/303 304/304/304
f 303/303/303 305/305/305 304/304/304
f 304/304/304 305/305/305 306/306/306
f 305/305/305 307/307/307 306/306/306
f 307/307/307 308/308/308 306/306/306
f 308/308/308 309/309/309 306/306/306
f 306/306/306 309/309/309 310/310/310
f 309/309/309 311/311/311 310/310/310
f 311/311/311 312/312/312 310/310/310
f 312/312/312 313/313/313 310/310/310
f 310/310/310 313/313/313 304/304/304
f 313/313/313 302/302/302 304/304/304
f 304/304/304 306/306/306 310/310/310
f 311/311/311 309/309/309 314/314/314
f 314/314/314 309/309/309 315/315/315
f 309/309/309 308/308/308 315/315/315
f 314/314/314 315/315/315 316/316/316
f 317/317/317 319/319/319 318/318/318
f 318/318/318 319/319/319 320/320/320
f 319/319/319 321/321/321 320/320/320
f 320/320/320 321/321/321 322/322/322
f 321/321/321 323/323/323 322/322/322
f 323/323/323 324/324/324 322/322/322
f 324/324/324 325/325/325 322/322/322
f 322/322/322 325/325/325 326/326/326
f 325/325/325 327/327/327 326/326/326
f 327/327/327 328/328/328 326/326/326
f 328/328/328 329/329/329 326/326/326
f 326/326/326 329/329/329 320/320/320
f 329/329/329 318/318/318 320/320/320
f 320/320/320 322/322/322 326/326/326
f 327/327/327 325/325/325 330/330/330
f 330/330/330 325/325/325 331/331/331
f 325/325/325 324/324/324 331/331/331
f 330/330/330 331/331/331 332/332/332
f 333/333/333 335/335/335 334/334/334
f 334/334/334 335/335/335 336/336/336
f 335/335/335 337/337/337 336/336/336
f 337/337/337 338/338/338 336/336/336
f 336/336/336 338/338/338 339/339/339
f 339/339/339 338/338/338 340/340/340
f 338/338/338 341/341/341 340/340/340
f 340/340/340 341/341/341 342/342/342
f 334/334/334 336/336/336 343/343/343
f 343/343/343 336/336/336 339/339/339
f 344/344/344 346/346/346 345/345/345
f 346/346/346 347/347/347 345/345/345
f 345/345/345 347/347/347 348/348/348
f 347/347/347 349/349/349 348/348/348
f 348/348/348 349/349/349 350/350/350
f 349/349/349 351/351/351 350/350/350
f 350/350/350 351/351/351 352/352/352
f 352/352/352 351/351/351 353/353/353
f 351/351/351 354/354/354 353/353/353
f 353/353/353 354/354/354 355/355/355
f 355/355/355 354/354/354 356/356/356
f 354/354/354 357/357/357 356/356/356
f 357/357/357 358/358/358 356/356/356
f 358/358/358 359/359/359 356/356/356
f 356/356/356 359/359/359 360/360/360
f 360/360/360 359/359/359 361/361/361
f 359/359/359 362/362/362 361/361/361
f 361/361/361 362/362/362 363/363/363
f 362/362/362 364/364/364 363/363/363
f 363/363/363 364/364/364 365/365/365
f 364/364/364 366/366/366 365/365/365
f 365/365/365 366/366/366 367/367/367
f 347/347/347 368/368/368 349/349/349
f 368/368/368 369/369/369 349/349/349
f 349/349/349 369/369/369 351/351/351
f 351/351/351 369/369/369 354/354/354
f 369/369/369 357/357/357 354/354/354
f 360/360/360 355/355/355 356/356/356
f 370/370/370 372/372/372 371/371/371
f 371/371/371 372/372/372 373/373/373
f 372/372/372 374/374/374 373/373/373
f 374/374/374 375/375/375 373/373/373
f 375/375/375 376/376/376 373/373/373
f 373/373/373 376/376/376 377/377/377
f 377/377/377 376/376/376 378/378/378
f 376/376/376 379/379/379 378/378/378
f 378/378/378 379/379/379 380/380/380
f 379/379/379 381/381/381 380/380/380
f 371/371/371 373/373/373 377/377/377
f 374/374/374 382/382/382 375/375/375
f 375/375/375 382/382/382 383/383/383
f 382/382/382 384/384/384 383/383/383
f 383/383/383 384/384/384 385/385/385
f 384/384/384 386/386/386 385/385/385
f 386/386/386 387/387/387 385/385/385
f 385/385/385 387/387/387 388/388/388
f 387/387/387 389/389/389 388/388/388
f 375/375/375 390/390/390 376/376/376
f 376/376/376 390/390/390 379/379/379
f 390/390/390 391/391/391 379/379/379
f 379/379/379 391/391/391 381/381/381
f 381/381/381 391/391/391 392/392/392
f 392/392/392 391/391/391 393/393/393
f 391/391/391 394/394/394 393/393/393
f 393/393/393 394/394/394 388/388/388
f 388/388/388 394/394/394 385/385/385
f 385/385/385 394/394/394 383/383/383
f 394/394/394 390/390/390 383/383/383
f 383/383/383 390/390/390 375/375/375
f 390/390/390 394/394/394 391/391/391
f 395/395/395 396/396/396 397/397/397
f 396/396/396 398/398/398 397/397/397
f 397/397/397 398/398/398 389/389/389
f 389/389/389 398/398/398 388/388/388
f 388/388/388 398/398/398 393/393/393
f 398/398/398 399/399/399 393/393/393
f 393/393/393 399/399/399 392/392/392
f 399/399/399 398/398/398 396/396/396
f 400/400/400 401/401/401 402/402/402
f 401/401/401 403/403/403 402/402/402
f 402/402/402 403/403/403 404/404/404
f 403/403/403 405/405/405 404/404/404
f 404/404/404 405/405/405 406/406/406
f 405/405/405 407/407/407 406/406/406
f 406/406/406 407/407/407 408/408/408
f 407/407/407 409/409/409 408/408/408
f 401/401/401 410/410/410 403/403/403
f 410/410/410 411/411/411 403/403/403
f 403/403/403 411/411/411 405/405/405
f 411/411/411 412/412/412 405/405/405
f 405/405/405 412/412/412 407/407/407
f 410/410/410 413/413/413 411/411/411
f 411/411/411 413/413/413 414/414/414
f 413/413/413 415/415/415 414/414/414
f 415/415/415 416/416/416 414/414/414
f 414/414/414 416/416/416 417/417/417
f 416/416/416 418/418/418 417/417/417
f 411/411/411 414/414/414 412/412/412
f 414/414/414 417/417/417 412/412/412
f 412/412/412 417/417/417 419/419/419
f 417/417/417 420/420/420 419/419/419
f 419/419/419 420/420/420 421/421/421
f 421/421/421 420/420/420 422/422/422
f 420/420/420 423/423/423 422/422/422
f 422/422/422 423/423/423 424/424/424
f 412/412/412 419/419/419 407/407/407
f 407/407/407 419/419/419 409/409/409
f 419/419/419 421/421/421 409/409/409
f 417/417/417 418/418/418 420/420/420
f 418/418/418 423/423/423 420/420/420
f 425/425/425 426/426/426 427/427/427
f 426/426/426 428/428/428 427/427/427
f 428/428/428 429/429/429 427/427/427
f 427/427/427 429/429/429 430/430/430
f 429/429/429 431/431/431 430/430/430
f 431/431/431 432/432/432 430/430/430
f 430/430/430 432/432/432 433/433/433
f 432/432/432 434/434/434 433/433/433
f 433/433/433 434/434/434 435/435/435
f 426/426/426 436/436/436 428/428/428
f 428/428/428 436/436/436 437/437/437
f 427/427/427 430/430/430 438/438/438
f 434/434/434 432/432/432 439/439/439
f 439/439/439 432/432/432 440/440/440
f 432/432/432 431/431/431 440/440/440
f 440/440/440 431/431/431 441/441/441
f 431/431/431 442/442/442 441/441/441
f 441/441/441 442/442/442 443/443/443
f 431/431/431 429/429/429 442/442/442
f 442/442/442 429/429/429 444/444/444
f 429/429/429 428/428/428 444/444/444
f 428/428/428 437/437/437 444/444/444
f 437/437/437 445/445/445 444/444/444
f 444/444/444 445/445/445 446/446/446
f 445/445/445 447/447/447 446/446/446
f 446/446/446 447/447/447 448/448/448
f 447/447/447 449/449/449 448/448/448
f 444/444/444 446/446/446 442/442/442
f 442/442/442 446/446/446 443/443/443
f 446/446/446 448/448/448 443/443/443
f 439/439/439 450/450/450 434/434/434
f 434/434/434 450/450/450 451/451/451
f 450/450/450 452/452/452 451/451/451
f 451/451/451 452/452/452 453/453/453
f 452/452/452 454/454/454 453/453/453
f 453/453/453 454/454/454 455/455/455
f 456/456/456 458/458/458 457/457/457
f 458/458/458 459/459/459 457/457/457
f 459/459/459 460/460/460 457/457/457
f 460/460/460 461/461/461 457/457/457
f 461/461/461 462/462/462 457/457/457
f 462/462/462 463/463/463 457/457/457
f 463/463/463 464/464/464 457/457/457
f 464/464/464 465/465/465 457/457/457
f 465/465/465 466/466/466 457/457/457
f 466/466/466 467/467/467 457/457/457
f 467/467/467 468/468/468 457/457/457
f 468/468/468 469/469/469 457/457/457
f 469/469/469 470/470/470 457/457/457
f 470/470/470 471/471/471 457/457/457
f 471/471/471 472/472/472 457/457/457
f 472/472/472 473/473/473 457/457/457
f 473/473/473 474/474/474 457/457/457
f 474/474/474 475/475/475 457/457/457
f 475/475/475 476/476/476 457/457/457
f 476/476/476 477/477/477 457/457/457
f 477/477/477 478/478/478 457/457/457
f 478/478/478 479/479/479 457/457/457
f 479/479/479 480/480/480 457/457/457
f 457/457/457 480/480/480 456/456/456
f 481/481/481 483/483/483 482/482/482
f 482/482/482 483/483/483 484/484/484
f 483/483/483 485/485/485 484/484/484
f 484/484/484 485/485/485 486/486/486
f 487/487/487 489/489/489 488/488/488
f 488/488/488 489/489/489 490/490/490
f 489/489/489 491/491/491 490/490/490
f 490/490/490 491/491/491 492/492/492
f 493/493/493 495/495/495 494/494/494
f 494/494/494 495/495/495 496/496/496
f 495/495/495 497/497/497 496/496/496
f 496/496/496 497/497/497 498/498/498
f 499/499/499 501/501/501 500/500/500
f 500/500/500 501/501/501 502/502/502
f 501/501/501 503/503/503 502/502/502
f 502/502/502 503/503/503 504/504/504
f 505/505/505 507/507/507 506/506/506
f 506/506/506 507/507/507 508/508/508
f 507/507/507 509/509/509 508/508/508
f 508/508/508 509/509/509 510/510/510
f 511/511/511 513/513/513 512/512/512
f 512/512/512 513/513/513 514/514/514
f 513/513/513 515/515/515 514/514/514
f 514/514/514 515/515/515 516/516/516
f 517/517/517 519/519/519 518/518/518
f 518/518/518 519/519/519 520/520/520
f 519/519/519 521/521/521 520/520/520
f 520/520/520 521/521/521 522/522/522
f 523/523/523 525/525/525 524/524/524
f 524/524/524 525/525/525 526/526/526
f 525/525/525 527/527/527 526/526/526
f 526/526/526 527/527/527 528/528/528
f 529/529/529 531/531/531 530/530/530
f 530/530/530 531/531/531 532/532/532
f 531/531/531 533/533/533 532/532/532
f 532/532/532 533/533/533 534/534/534
f 535/535/535 537/537/537 536/536/536
f 536/536/536 537/537/537 538/538/538
f 537/537/537 539/539/539 538/538/538
f 538/538/538 539/539/539 540/540/540
f 541/541/541 543/543/543 542/542/542
f 542/542/542 543/543/543 544/544/544
f 545/545/545 547/547/547 546/546/546
f 546/546/546 547/547/547 548/548/548
f 549/549/549 551/551/551 550/550/550
f 550/550/550 551/551/551 552/552/552
f 551/551/551 553/553/553 552/552/552
f 552/552/552 553/553/553 554/554/554
